<?xml version="1.0" encoding="UTF-8"?><svg id="_レイヤー_1" xmlns="http://www.w3.org/2000/svg" viewBox="0 0 469.01 202.64"><defs><style>.cls-1,.cls-2,.cls-3{fill:none;stroke:#fff;stroke-miterlimit:10;}.cls-2{stroke-width:.67px;}.cls-4{fill:#fff;}.cls-3{stroke-width:.62px;}</style></defs><path class="cls-4" d="M50.8,108.13c0,2.43-.49,3.3-1.94,3.3-.29,0-.68-.19-1.17-.58-3.79-2.72-7.19-3.89-11.37-3.89-10.2,0-17.49,7.39-17.49,17.78s7.39,17.4,17.69,17.4c4.76,0,8.26-1.17,11.66-3.98.39-.29.78-.49,1.17-.49,1.17,0,1.46.78,1.46,3.3v11.66c0,2.04-.1,2.33-.78,2.82-.29.19-.49.29-.97.39-6.9,2.23-9.04,2.62-13.12,2.62-9.72,0-19.44-4.18-26.14-11.27-5.64-5.93-8.55-13.61-8.55-22.35,0-19.15,15.16-34.31,34.4-34.31,4.47,0,12.63,1.75,14.38,3.11.68.49.78.78.78,2.82v11.66Z"/><path class="cls-4" d="M109.79,152.54c1.07,1.36,1.26,1.75,1.26,2.33,0,1.36-.87,1.85-3.3,1.85h-13.41q-2.33,0-3.6-1.94l-14.77-22.94v21.67c.1,2.72-.49,3.3-3.21,3.21h-10.4c-2.72.1-3.3-.49-3.21-3.21v-58.41c-.1-2.72.49-3.3,3.21-3.21h22.94c7.29,0,12.15,1.75,15.94,5.73,3.5,3.69,5.54,8.94,5.54,14.29,0,5.73-2.24,11.18-5.93,14.38-2.24,1.94-4.37,2.92-8.26,3.89l17.2,22.35ZM79.08,120.96c3.21,0,5.64-.58,7.19-1.75,1.85-1.26,3.21-3.98,3.21-6.32s-1.36-4.96-3.21-6.32c-1.56-1.07-3.98-1.75-7.19-1.75h-3.11v16.13h3.11Z"/><path class="cls-4" d="M176.07,100.84c6.03,6.32,9.33,14.67,9.33,23.62,0,10.3-4.37,19.92-12.15,26.43-6.51,5.44-14.48,8.16-24,8.16-20.41,0-35.57-14.97-35.57-35.18,0-9.72,4.47-19.24,12.15-25.75,6.12-5.25,14.67-8.16,23.71-8.16,10.79,0,19.63,3.6,26.53,10.88ZM131.27,124.75c0,9.82,8.26,17.98,18.27,17.98s18.27-8.16,18.27-18.27-8.16-18.17-18.27-18.17-18.27,8.16-18.27,18.46Z"/><path class="cls-4" d="M229.9,105.6c-.97,1.94-1.36,2.23-2.33,2.23q-.49,0-5.25-2.62c-1.07-.58-2.92-.87-5.15-.87-4.08,0-7.19,2.43-7.19,5.64,0,1.17.58,2.43,1.55,3.21,1.85,1.56,2.53,1.85,10.11,4.08,11.27,3.3,15.94,8.55,15.94,18.17,0,7.39-2.24,13.02-6.61,16.81-4.57,3.98-11.27,6.12-18.66,6.12-6.9,0-15.65-2.62-20.8-6.22-.78-.49-1.07-1.07-1.07-1.75,0-.29.29-1.07.78-2.04l4.08-7.68c.97-1.85,1.36-2.14,2.33-2.14q.58,0,4.37,2.62c2.53,1.75,6.41,2.92,10.01,2.92,4.76,0,7.97-2.53,7.97-6.32,0-3.5-2.24-5.15-10.11-7.48-7.19-2.14-10.01-3.3-12.34-5.25-3.4-2.82-5.15-7.09-5.15-12.83,0-12.83,8.94-21.87,21.77-21.87,6.22,0,14.77,1.94,19.15,4.37.68.39,1.07,1.07,1.07,1.65,0,.49-.1.68-.78,2.14l-3.69,7.09Z"/><path class="cls-4" d="M282.38,105.6c-.97,1.94-1.36,2.23-2.33,2.23q-.49,0-5.25-2.62c-1.07-.58-2.92-.87-5.15-.87-4.08,0-7.19,2.43-7.19,5.64,0,1.17.58,2.43,1.55,3.21,1.85,1.56,2.53,1.85,10.11,4.08,11.27,3.3,15.94,8.55,15.94,18.17,0,7.39-2.24,13.02-6.61,16.81-4.57,3.98-11.27,6.12-18.66,6.12-6.9,0-15.65-2.62-20.8-6.22-.78-.49-1.07-1.07-1.07-1.75,0-.29.29-1.07.78-2.04l4.08-7.68c.97-1.85,1.36-2.14,2.33-2.14q.58,0,4.37,2.62c2.53,1.75,6.41,2.92,10.01,2.92,4.76,0,7.97-2.53,7.97-6.32,0-3.5-2.24-5.15-10.11-7.48-7.19-2.14-10.01-3.3-12.34-5.25-3.4-2.82-5.15-7.09-5.15-12.83,0-12.83,8.94-21.87,21.77-21.87,6.22,0,14.77,1.94,19.15,4.37.68.39,1.07,1.07,1.07,1.65,0,.49-.1.68-.78,2.14l-3.69,7.09Z"/><path class="cls-4" d="M315.23,153.51c.1,2.72-.49,3.3-3.21,3.21h-10.4c-2.72.1-3.3-.49-3.21-3.21v-58.41c-.1-2.72.49-3.3,3.21-3.21h10.4c2.72-.1,3.3.49,3.21,3.21v58.41Z"/><path class="cls-4" d="M374.21,95.11c-.1-2.72.49-3.3,3.21-3.21h10.4c2.72-.1,3.3.49,3.21,3.21v58.41c.1,2.72-.49,3.3-3.21,3.21h-11.37c-1.65,0-1.75,0-2.14-.19s-.49-.29-1.46-1.56l-29.64-37.9v36.44c.1,2.72-.49,3.3-3.21,3.21h-10.4c-2.72.1-3.3-.49-3.21-3.21v-58.41c-.1-2.72.49-3.3,3.21-3.21h11.37c1.65,0,1.75,0,2.14.19s.49.29,1.46,1.56l29.64,37.9v-36.44Z"/><path class="cls-4" d="M437.77,133.88c-2.72.1-3.3-.49-3.21-3.21v-6.71c-.1-2.72.49-3.3,3.21-3.21h26.82c2.92,0,3.4.39,3.4,3.01,0,5.64-1.36,12.34-3.4,16.91-5.25,11.86-15.94,18.37-29.83,18.37-20.51,0-34.6-13.99-34.6-34.31s14.29-34.89,35.08-34.89c11.08,0,19.63,4.08,25.46,11.95,2.04,2.62,3.01,4.47,3.01,5.35,0,1.07-.49,1.46-2.33,2.24l-9.91,4.08c-1.46.58-1.65.68-2.04.68-.68,0-1.26-.39-1.75-1.17-3.4-6.03-7.29-8.55-13.12-8.55-9.62,0-16.81,8.65-16.81,20.31,0,5.93,2.14,11.86,5.83,15.74,2.82,3.01,6.8,4.66,11.47,4.66s8.55-1.65,10.98-4.76c1.26-1.75,1.85-3.3,2.33-6.51h-10.59Z"/><path class="cls-4" d="M119.48,16.82c-2.72.1-3.3-.49-3.21-3.21V3.22c-.1-2.72.49-3.3,3.21-3.21h58.41c2.72-.1,3.3.49,3.21,3.21v10.4c.1,2.72-.49,3.3-3.21,3.21h-58.41Z"/><path class="cls-4" d="M177.88,28c2.72-.1,3.3.49,3.21,3.21v21.67c0,17.1-14.97,31.88-32.36,31.88s-32.46-14.77-32.46-31.88v-21.67c-.1-2.72.49-3.3,3.21-3.21h58.41ZM130.55,48.7c0,6.32,1.65,10.4,5.44,13.8,3.3,3.01,7.87,4.67,12.73,4.67s9.33-1.65,12.63-4.67c3.79-3.4,5.44-7.48,5.44-13.8v-3.89h-36.25v3.89Z"/><path class="cls-4" d="M130.55,198.99c.1,2.72-.49,3.3-3.21,3.21h-7.87c-2.72.1-3.3-.49-3.21-3.21v-30.61c-.1-2.72.49-3.3,3.21-3.21h58.41c2.72-.1,3.3.49,3.21,3.21v10.4c.1,2.72-.49,3.3-3.21,3.21h-47.33v17.01Z"/><path class="cls-4" d="M230.55,70.67c0,1.56-.46,2.8-1.38,3.72-.76.76-1.78,1.24-3.04,1.46-.63,1.51-1.82,2.48-3.57,2.9v-1.42c.87-.34,1.53-.82,1.95-1.46.45-.69.68-1.6.68-2.73v-.52h1.42v.59c0,.4-.02.77-.07,1.13,1.31-.36,2.1-1.22,2.34-2.57h-6.63v-1.38h8.31v.28Z"/><path class="cls-4" d="M240.34,70.12c-.47,1.36-1.35,2.49-2.64,3.37v5.43h-1.55v-4.58c-1.18.52-2.56.9-4.13,1.14v-1.42c3.5-.63,5.73-1.95,6.67-3.95h1.65Z"/><path class="cls-4" d="M250.45,75.65c-1.78-.48-3.68-.93-5.68-1.33v4.48h-1.53v-8.76h1.53v2.81c2.4.47,4.3.9,5.68,1.28v1.52ZM248.4,71.86h-.95v-1.55h.95v1.55ZM249.76,71.86h-.94v-1.55h.94v1.55Z"/><path class="cls-4" d="M254.99,72.95c0,1.71-.26,3.07-.79,4.06-.42.8-1.07,1.46-1.96,1.97v-1.68c.41-.41.72-.87.91-1.38.25-.7.38-1.65.38-2.85v-2.78h1.46v2.67ZM261.13,72.91c-.17,3.62-1.86,5.55-5.07,5.79v-8.41h1.44v6.57c.67-.22,1.2-.71,1.58-1.46.34-.67.55-1.5.61-2.49h1.45Z"/><path class="cls-4" d="M270.61,78.42c-1.21.2-2.38.3-3.52.3-1.61,0-2.81-.27-3.59-.82-.69-.48-1.03-1.13-1.03-1.96,0-1.46,1.01-2.52,3.04-3.17-.06-.45-.16-1.33-.31-2.61h1.5l.25,2.25c1.05-.21,2.24-.33,3.57-.38v1.4c-1.91.03-3.45.25-4.62.64-1.27.43-1.91,1.02-1.91,1.76,0,1.01,1.06,1.52,3.17,1.52.96,0,2.12-.12,3.46-.36v1.44Z"/><path class="cls-4" d="M274.24,72.64c-.15-.33-.31-.64-.46-.93h-1.45v-1.07h3.58v-.86h1.44v.86h3.58v1.07h-1.53c-.15.34-.3.65-.44.93h2.38v1.12h-9.41v-1.12h2.31ZM280.2,79.04h-1.39v-.49h-4.26v.49h-1.38v-4.79h7.03v4.79ZM278.81,75.89v-.58h-4.26v.58h4.26ZM278.81,77.45v-.6h-4.26v.6h4.26ZM275.31,71.71c.17.32.31.63.42.93h1.75c.16-.31.3-.62.43-.93h-2.6Z"/><path class="cls-4" d="M288.76,74.73h-1.4v.51h3.85v1.12h-2.92c.84.54,1.9,1.02,3.19,1.44l-.85.99c-1.34-.53-2.43-1.12-3.27-1.77v1.99h-1.34v-1.96c-.84.63-1.91,1.21-3.22,1.74l-.86-.99c1.29-.42,2.35-.9,3.18-1.44h-2.9v-1.12h3.8v-.51h-1.39v-4.05h1.21c.12-.3.23-.62.33-.96l1.42.14c-.11.36-.2.63-.27.82h1.46v.98c.48-.45.91-.98,1.28-1.58l1.2.62c-.49.67-.95,1.21-1.38,1.59l-1.09-.52v1.55l.76-.73c.61.33,1.24.76,1.91,1.29l-.95.91c-.53-.47-1.11-.88-1.73-1.24v1.18ZM284.56,73.6c-.54.49-1.17.94-1.88,1.35l-.67-1.17c.9-.44,1.6-.84,2.09-1.21l.46,1.02ZM284.59,71.64l-1.11.68c-.45-.56-.88-1.04-1.3-1.44l1.01-.68c.47.38.93.86,1.39,1.44ZM287.42,72.28v-.56h-1.49v.56h1.49ZM287.42,73.74v-.56h-1.49v.56h1.49Z"/><path class="cls-4" d="M301.21,74.29c0,1.42-.44,2.51-1.32,3.29-.76.67-1.75,1.03-2.96,1.07v-1.36c.81-.09,1.46-.36,1.95-.82.58-.54.87-1.28.87-2.24,0-.61-.17-1.13-.51-1.56-.36-.47-.86-.77-1.52-.92-.34,2.55-.84,4.37-1.51,5.46-.41.67-.94,1-1.6,1-.56,0-1.07-.28-1.51-.85-.49-.62-.73-1.41-.73-2.38,0-1.3.42-2.39,1.27-3.27.87-.9,2-1.35,3.38-1.35,1.29,0,2.32.37,3.09,1.11.74.72,1.11,1.66,1.11,2.82ZM296.32,71.7c-.8.12-1.44.51-1.92,1.16-.45.61-.67,1.32-.67,2.13,0,.5.11.94.32,1.3.19.32.37.48.55.48.23,0,.48-.32.76-.96.41-.95.73-2.32.96-4.1Z"/><path class="cls-4" d="M303.29,71.57c-.09,1.17-.24,2.19-.44,3.06l-1.03-.57c.23-.89.39-1.82.48-2.8l1,.31ZM304.7,79.03h-1.29v-9.22h1.29v1.37l.46-.23c.21.51.44,1.15.67,1.93h1.95v-.32h-1.88v-.9h1.88v-.3h-2.16v-.99h2.16v-.6h1.34v.6h2.23v.99h-2.23v.3h1.9v.9h-1.9v.32h2.47v1.03h-6.16v-.59l-.41.22c-.1-.43-.21-.86-.33-1.27v6.76ZM311.01,78c0,.36-.08.61-.23.77-.15.16-.41.23-.76.23h-1.14l-.28-1h.8c.21,0,.32-.11.32-.33v-.25h-2.45v1.61h-1.29v-4.82h5.03v3.79ZM309.72,75.42v-.33h-2.45v.33h2.45ZM309.72,76.57v-.35h-2.45v.35h2.45Z"/><path class="cls-4" d="M316.74,75.72h-1.44v.66h1.3v1.16h-1.3v1.51h-1.28v-1.51h-1.54v-1.16h1.54v-.66h-1.63v-1.19h.8c-.1-.39-.19-.73-.29-1.02h-.56v-1.16h1.68v-.66h-1.37v-1.13h1.37v-.72h1.28v.72h1.31v1.13h-1.31v.66h1.49v1.16h-.45c-.08.31-.18.65-.32,1.02h.72v1.19ZM314.38,74.53h.48c.12-.34.22-.68.3-1.02h-1.02c.09.33.17.67.25,1.02ZM321.83,78.01l-.82,1.03c-.41-.34-.78-.7-1.1-1.08-.28.39-.56.75-.86,1.07l-.82-.64v.65h-1.2v-9.03h4.35v1.69c0,.45-.07.75-.22.9s-.41.23-.79.23h-1.23l-.26-1.03h.9c.18,0,.28-.04.31-.12.01-.03.02-.09.02-.15v-.32h-1.8v2.02h3.14v.97c-.12.9-.43,1.8-.91,2.71.33.39.75.75,1.26,1.1ZM319.22,76.95c-.45-.8-.74-1.67-.87-2.6h-.1v3.68c.37-.33.7-.69.97-1.07ZM319.38,74.35c.09.54.25,1.05.49,1.51.24-.5.41-1.01.5-1.51h-.98Z"/><path class="cls-4" d="M329.52,74.33c-.44.7-.94,1.31-1.5,1.85,1.03.69,2.3,1.24,3.8,1.66l-.92,1.19c-1.63-.58-2.93-1.24-3.92-1.97-1.01.75-2.31,1.41-3.89,1.97l-.91-1.19c1.53-.44,2.79-.99,3.79-1.65-.55-.54-1.04-1.15-1.48-1.82-.36.29-.76.58-1.22.88l-.96-1.01c1.07-.63,1.91-1.27,2.52-1.94h-2.38v-1.28h3.86v-1.17h1.36v1.17h3.86v1.28h-2.33c.61.67,1.46,1.32,2.53,1.94l-.96,1c-.47-.3-.89-.6-1.27-.91ZM327,75.39c.63-.57,1.14-1.22,1.54-1.95-.2-.21-.41-.44-.64-.7l.64-.44h-3.02l.64.44c-.26.31-.49.56-.67.74.39.72.9,1.35,1.51,1.91Z"/><path class="cls-4" d="M335.69,75.19c-.07.19-.14.37-.22.54h5.53v1.13h-2.31v.84h2.87v1.2h-7.19v-1.2h2.84v-.84h-1.79v-1.02c-.41.87-1.09,1.72-2.04,2.56l-1.17-.91c.98-.69,1.67-1.45,2.08-2.29h-1.79v-1.16h3.83v-.51h-3v-1.07h3v-.49h-3.46v-1.16h1.93c-.21-.37-.38-.64-.52-.84l1.38-.23c.2.28.41.64.64,1.06h1.48c.18-.3.37-.66.56-1.11l1.43.2c-.12.25-.28.55-.5.91h2.07v1.16h-3.59v.49h3.03v1.07h-3.03v.51h3.88v1.16h-5.95Z"/><path class="cls-4" d="M344.68,76.84c-.26.85-.59,1.61-.99,2.3l-1.32-.45c.47-.69.84-1.42,1.09-2.18l1.22.33ZM351,76.29h-7.72v-3.55h2.84v-2.89h1.44v.84h4.04v1.26h-4.04v.8h3.44v3.55ZM349.65,75.09v-1.15h-5.03v1.15h5.03ZM346.69,78.89l-1.31.2c-.08-.81-.2-1.55-.36-2.2l1.27-.2c.17.63.31,1.37.4,2.2ZM349.09,78.8l-1.36.19c-.14-.81-.31-1.52-.51-2.13l1.28-.24c.23.66.43,1.39.59,2.18ZM351.86,78.6l-1.33.43c-.43-.94-.81-1.67-1.16-2.2l1.27-.38c.44.65.85,1.37,1.22,2.15Z"/><path class="cls-4" d="M361.76,71.21h-2.44v3.78h-1.42v-5.2h3.85v1.42Z"/><path class="cls-4" d="M371.55,70.67c0,1.56-.46,2.8-1.38,3.72-.76.76-1.78,1.24-3.04,1.46-.63,1.51-1.82,2.48-3.57,2.9v-1.42c.87-.34,1.53-.82,1.95-1.46.46-.69.68-1.6.68-2.73v-.52h1.42v.59c0,.4-.02.77-.07,1.13,1.32-.36,2.1-1.22,2.35-2.57h-6.63v-1.38h8.3v.28Z"/><path class="cls-4" d="M381.34,70.12c-.47,1.36-1.35,2.49-2.64,3.37v5.43h-1.55v-4.58c-1.18.52-2.55.9-4.13,1.14v-1.42c3.5-.63,5.73-1.95,6.67-3.95h1.65Z"/><path class="cls-4" d="M391.46,75.65c-1.78-.48-3.68-.93-5.68-1.33v4.48h-1.53v-8.76h1.53v2.81c2.4.47,4.3.9,5.68,1.28v1.52ZM389.4,71.86h-.95v-1.55h.95v1.55ZM390.77,71.86h-.94v-1.55h.94v1.55Z"/><path class="cls-4" d="M395.99,72.95c0,1.71-.26,3.07-.79,4.06-.42.8-1.07,1.46-1.96,1.97v-1.68c.41-.41.72-.87.91-1.38.25-.7.38-1.65.38-2.85v-2.78h1.46v2.67ZM402.14,72.91c-.17,3.62-1.86,5.55-5.07,5.79v-8.41h1.44v6.57c.67-.22,1.2-.71,1.58-1.46.34-.67.55-1.5.61-2.49h1.45Z"/><path class="cls-4" d="M410.28,75.97c-1.22,1.63-3.11,2.54-5.66,2.74v-1.35c3.4-.38,5.25-2.23,5.58-5.56h-3.85c-.29.72-.71,1.36-1.26,1.91-.56.57-1.2.98-1.9,1.24v-1.51c1.06-.69,1.74-1.69,2.04-3.01h6.59c0,2.33-.51,4.17-1.53,5.54Z"/><path class="cls-4" d="M421.66,78.39h-8.06v-7.84h8.06v7.84ZM420.2,77.02v-5.11h-5.12v5.11h5.12Z"/><path class="cls-4" d="M426.12,75.16h-1.42c-.17-1.19-.44-2.39-.82-3.6h1.35c.36,1.09.65,2.29.88,3.6ZM431.38,71.68c0,2.18-.51,3.85-1.52,5.01-.95,1.1-2.39,1.8-4.32,2.1v-1.33c1.6-.33,2.74-.97,3.42-1.92.62-.87.93-2.16.93-3.86v-.14h1.49v.15ZM428.66,75.08h-1.43c-.17-1.18-.42-2.38-.76-3.6h1.35c.31.94.59,2.15.84,3.6Z"/><path class="cls-4" d="M438.14,74.81c-1.59-.21-3.04-.34-4.35-.37v-1.37c1.54.05,2.99.17,4.35.36v1.38ZM438.24,72.07c-1.77-.23-3.22-.37-4.36-.4v-1.36c1.45.05,2.9.17,4.36.36v1.4ZM442.11,71.75c-.19,2.41-1,4.18-2.44,5.3-1.3,1.02-3.19,1.55-5.65,1.58v-1.45c2.12-.07,3.68-.5,4.68-1.3,1.05-.83,1.67-2.21,1.86-4.13h1.55Z"/><path class="cls-4" d="M448.25,72.52c-1.36-.3-2.78-.5-4.25-.6v-1.48c1.4.09,2.81.28,4.25.57v1.51ZM451.99,71.84c-.2,2.31-.98,4.01-2.33,5.1-1.27,1.02-3.11,1.57-5.54,1.65v-1.45c1.95-.14,3.39-.56,4.33-1.26,1.12-.83,1.78-2.18,1.98-4.05h1.56Z"/><path class="cls-4" d="M460.68,75.64c-1.2,1.84-3.16,2.86-5.9,3.08v-1.35c3.4-.38,5.26-2.23,5.59-5.56h-3.78c-.29.72-.71,1.35-1.26,1.9-.56.57-1.2.98-1.9,1.24v-1.5c1.06-.69,1.74-1.69,2.03-3.01h5.17v-.98h.9v.98h.41v-.98h.9v1.48h-.87c-.06,1.91-.49,3.47-1.29,4.7Z"/><path class="cls-4" d="M467.29,79.01h-3.85v-1.42h2.44v-3.79h1.42v5.21Z"/><line class="cls-1" x1="108.64" y1="0" x2="108.64" y2="83.1"/><line class="cls-1" x1="187.95" y1="0" x2="187.96" y2="83.1"/><line class="cls-1" x1="469.01" y1="83.11" x2="187.57" y2="83.1"/><line class="cls-1" x1="469.01" y1="165.02" x2="187.57" y2="165.02"/><line class="cls-3" x1="109.12" y1="83.11" x2="0" y2="83.1"/><line class="cls-3" x1="109.12" y1="165.02" x2="0" y2="165.02"/><line class="cls-2" x1="108.64" y1="165.02" x2="108.64" y2="202.64"/><line class="cls-2" x1="187.95" y1="165.02" x2="187.96" y2="202.64"/></svg>